<?xml version="1.0" encoding="UTF-8"?>
<svg version="1.1" xmlns="http://www.w3.org/2000/svg" width="60" height="60">
<path d="M0 0 C19.8 0 39.6 0 60 0 C60 19.8 60 39.6 60 60 C40.2 60 20.4 60 0 60 C0 40.2 0 20.4 0 0 Z " fill="#2E2622" transform="translate(0,0)"/>
<path d="M0 0 C2.44291483 2.44291483 4.23307788 4.61340324 6.1796875 7.421875 C6.77910156 8.28296875 7.37851563 9.1440625 7.99609375 10.03125 C8.61613281 10.9284375 9.23617188 11.825625 9.875 12.75 C11.69257655 15.36731024 13.51096626 17.98404524 15.33105469 20.59960938 C16.38755188 22.11913547 17.44071608 23.64098903 18.48925781 25.16601562 C20.74361671 28.61966221 20.74361671 28.61966221 24 31 C24.31904297 30.00033203 24.31904297 30.00033203 24.64453125 28.98046875 C26.46383895 24.98008899 29.00605309 21.77475608 31.6875 18.3125 C32.77216974 16.89294722 33.85550595 15.47237451 34.9375 14.05078125 C35.46214844 13.36193848 35.98679688 12.6730957 36.52734375 11.96337891 C39.05727628 8.59041515 41.4317943 5.11792961 43.79296875 1.625 C44.19128906 1.08875 44.58960938 0.5525 45 0 C45.33 0 45.66 0 46 0 C46 15.18 46 30.36 46 46 C43.03 46 40.06 46 37 46 C36.67 39.73 36.34 33.46 36 27 C34.75283203 28.84078125 34.75283203 28.84078125 33.48046875 30.71875 C32.38334258 32.31286495 31.28565734 33.90659523 30.1875 35.5 C29.36668945 36.71623047 29.36668945 36.71623047 28.52929688 37.95703125 C27.99755859 38.72402344 27.46582031 39.49101563 26.91796875 40.28125 C26.43094482 40.99345703 25.9439209 41.70566406 25.44213867 42.43945312 C24.96623291 42.95443359 24.49032715 43.46941406 24 44 C23.01 44 22.02 44 21 44 C19.6496582 42.62304687 19.6496582 42.62304687 18.30078125 40.71875 C17.57084961 39.70361328 17.57084961 39.70361328 16.82617188 38.66796875 C16.32666016 37.95253906 15.82714844 37.23710938 15.3125 36.5 C14.54583008 35.42685547 14.54583008 35.42685547 13.76367188 34.33203125 C12.50029671 32.56094458 11.24899862 30.7812544 10 29 C9.67 34.61 9.34 40.22 9 46 C6.03 46 3.06 46 0 46 C0 30.82 0 15.64 0 0 Z " fill="#F19118" transform="translate(7,7)"/>
</svg>
